<svg version="1.1" xmlns="http://www.w3.org/2000/svg" xmlns:xlink="http://www.w3.org/1999/xlink" width="1920" height="931"><defs/><g><rect fill="#FFFFFF" stroke="none" x="0" y="0" width="790" height="405"/><path fill="white" stroke="black" paint-order="fill stroke markers" d=" M 50.5 95.5 L 70.5 95.5 L 70.5 115.5 L 50.5 115.5 L 50.5 95.5 Z" stroke-miterlimit="10" stroke-dasharray=""/><path fill="none" stroke="none"/><text fill="green" stroke="none" font-family="Raleway" font-size="20px" font-style="normal" font-weight="normal" text-decoration="normal" x="60" y="110" text-anchor="middle" dominant-baseline="alphabetic">0</text><path fill="white" stroke="black" paint-order="fill stroke markers" d=" M 50.5 135.5 L 70.5 135.5 L 70.5 155.5 L 50.5 155.5 L 50.5 135.5 Z" stroke-miterlimit="10" stroke-dasharray=""/><path fill="none" stroke="none"/><text fill="green" stroke="none" font-family="Raleway" font-size="20px" font-style="normal" font-weight="normal" text-decoration="normal" x="60" y="150" text-anchor="middle" dominant-baseline="alphabetic">0</text><path fill="white" stroke="black" paint-order="fill stroke markers" d=" M 50.5 175.5 L 70.5 175.5 L 70.5 195.5 L 50.5 195.5 L 50.5 175.5 Z" stroke-miterlimit="10" stroke-dasharray=""/><path fill="none" stroke="none"/><text fill="green" stroke="none" font-family="Raleway" font-size="20px" font-style="normal" font-weight="normal" text-decoration="normal" x="60" y="190" text-anchor="middle" dominant-baseline="alphabetic">0</text><path fill="white" stroke="black" paint-order="fill stroke markers" d=" M 50.5 215.5 L 70.5 215.5 L 70.5 235.5 L 50.5 235.5 L 50.5 215.5 Z" stroke-miterlimit="10" stroke-dasharray=""/><path fill="none" stroke="none"/><text fill="green" stroke="none" font-family="Raleway" font-size="20px" font-style="normal" font-weight="normal" text-decoration="normal" x="60" y="230" text-anchor="middle" dominant-baseline="alphabetic">0</text><path fill="white" stroke="black" paint-order="fill stroke markers" d=" M 50.5 295.5 L 70.5 295.5 L 70.5 315.5 L 50.5 315.5 L 50.5 295.5 Z" stroke-miterlimit="10" stroke-dasharray=""/><path fill="none" stroke="none"/><text fill="green" stroke="none" font-family="Raleway" font-size="20px" font-style="normal" font-weight="normal" text-decoration="normal" x="60" y="310" text-anchor="middle" dominant-baseline="alphabetic">0</text><path fill="white" stroke="black" paint-order="fill stroke markers" d=" M 50.5 335.5 L 70.5 335.5 L 70.5 355.5 L 50.5 355.5 L 50.5 335.5 Z" stroke-miterlimit="10" stroke-dasharray=""/><path fill="none" stroke="none"/><text fill="green" stroke="none" font-family="Raleway" font-size="20px" font-style="normal" font-weight="normal" text-decoration="normal" x="60" y="350" text-anchor="middle" dominant-baseline="alphabetic">0</text><path fill="white" stroke="black" paint-order="fill stroke markers" d=" M 50.5 255.5 L 70.5 255.5 L 70.5 275.5 L 50.5 275.5 L 50.5 255.5 Z" stroke-miterlimit="10" stroke-dasharray=""/><path fill="none" stroke="none"/><text fill="green" stroke="none" font-family="Raleway" font-size="20px" font-style="normal" font-weight="normal" text-decoration="normal" x="60" y="270" text-anchor="middle" dominant-baseline="alphabetic">0</text><path fill="white" stroke="black" paint-order="fill stroke markers" d=" M 190 105 C 200 105 215 115 220 125 C 215 135 200 145 190 145 C 200 125 200 125 190 105 Z" stroke-miterlimit="10" stroke-width="3" stroke-dasharray=""/><path fill="none" stroke="black" paint-order="fill stroke markers" d=" M 180.19463130731182 105.27457514062631 A 25 25 0 0 1 180.19463130731182 145.72542485937367" stroke-miterlimit="10" stroke-width="3" stroke-dasharray=""/><path fill="white" stroke="black" paint-order="fill stroke markers" d=" M 190 185 C 200 185 215 195 220 205 C 215 215 200 225 190 225 C 200 205 200 205 190 185 Z" stroke-miterlimit="10" stroke-width="3" stroke-dasharray=""/><path fill="none" stroke="black" paint-order="fill stroke markers" d=" M 180.19463130731182 185.27457514062633 A 25 25 0 0 1 180.19463130731182 225.72542485937367" stroke-miterlimit="10" stroke-width="3" stroke-dasharray=""/><path fill="white" stroke="black" paint-order="fill stroke markers" d=" M 350 295 C 360 295 375 305 380 315 C 375 325 360 335 350 335 C 360 315 360 315 350 295 Z" stroke-miterlimit="10" stroke-width="3" stroke-dasharray=""/><path fill="none" stroke="black" paint-order="fill stroke markers" d=" M 340.19463130731185 295.2745751406263 A 25 25 0 0 1 340.19463130731185 335.7254248593737" stroke-miterlimit="10" stroke-width="3" stroke-dasharray=""/><path fill="white" stroke="black" paint-order="fill stroke markers" d=" M 340.5 95.5 L 350.5 95.5 L 350.5 95.5 A 20 20 0 0 1 350.5 135.5 L 340.5 135.5 L 340.5 95.5 Z" stroke-miterlimit="10" stroke-width="3" stroke-dasharray=""/><path fill="white" stroke="black" paint-order="fill stroke markers" d=" M 180.5 265.5 L 190.5 265.5 L 190.5 265.5 A 20 20 0 0 1 190.5 305.5 L 180.5 305.5 L 180.5 265.5 Z" stroke-miterlimit="10" stroke-width="3" stroke-dasharray=""/><path fill="white" stroke="black" paint-order="fill stroke markers" d=" M 640.5 235.5 L 650.5 235.5 L 650.5 235.5 A 20 20 0 0 1 650.5 275.5 L 640.5 275.5 L 640.5 235.5 Z" stroke-miterlimit="10" stroke-width="3" stroke-dasharray=""/><path fill="white" stroke="black" paint-order="fill stroke markers" d=" M 500 175 C 510 175 525 185 530 195 C 525 205 510 215 500 215 C 510 195 510 195 500 175 Z" stroke-miterlimit="10" stroke-width="3" stroke-dasharray=""/><path fill="white" stroke="black" paint-order="fill stroke markers" d=" M 420.5 105.5 L 440.5 115.5 L 420.5 125.5 Z" stroke-miterlimit="10" stroke-width="3" stroke-dasharray=""/><path fill="none" stroke="black" paint-order="fill stroke markers" d=" M 450 115 A 5 5 0 1 1 449.99999750000023 114.99500000083333" stroke-miterlimit="10" stroke-width="3" stroke-dasharray=""/><path fill="white" stroke="black" paint-order="fill stroke markers" d=" M 180.5 55.5 L 200.5 65.5 L 180.5 75.5 Z" stroke-miterlimit="10" stroke-width="3" stroke-dasharray=""/><path fill="none" stroke="black" paint-order="fill stroke markers" d=" M 210 65 A 5 5 0 1 1 209.9999975000002 64.99500000083333" stroke-miterlimit="10" stroke-width="3" stroke-dasharray=""/><path fill="white" stroke="black" paint-order="fill stroke markers" d=" M 430.5 305.5 L 450.5 315.5 L 430.5 325.5 Z" stroke-miterlimit="10" stroke-width="3" stroke-dasharray=""/><path fill="none" stroke="black" paint-order="fill stroke markers" d=" M 460 315 A 5 5 0 1 1 459.99999750000023 314.99500000083333" stroke-miterlimit="10" stroke-width="3" stroke-dasharray=""/><path fill="white" stroke="blue" paint-order="fill stroke markers" d=" M 720.5 245.5 L 740.5 245.5 L 740.5 265.5 L 720.5 265.5 L 720.5 245.5 Z" stroke-miterlimit="10" stroke-width="3" stroke-dasharray=""/><path fill="none" stroke="none"/><text fill="green" stroke="none" font-family="Raleway" font-size="20px" font-style="normal" font-weight="normal" text-decoration="normal" x="730" y="260" text-anchor="middle" dominant-baseline="alphabetic">1</text><path fill="white" stroke="black" paint-order="fill stroke markers" d=" M 50.5 55.5 L 70.5 55.5 L 70.5 75.5 L 50.5 75.5 L 50.5 55.5 Z" stroke-miterlimit="10" stroke-width="3" stroke-dasharray=""/><path fill="none" stroke="none"/><path fill="none" stroke="none"/><text fill="green" stroke="none" font-family="Raleway" font-size="20px" font-style="normal" font-weight="normal" text-decoration="normal" x="60" y="70" text-anchor="middle" dominant-baseline="alphabetic">0</text><path fill="none" stroke="lightgreen" paint-order="fill stroke markers" d=" M 340 105.5 L 210 105.5" stroke-linecap="round" stroke-miterlimit="10" stroke-width="3" stroke-dasharray=""/><path fill="none" stroke="green" paint-order="fill stroke markers" d=" M 340 125.5 L 220 125.5" stroke-linecap="round" stroke-miterlimit="10" stroke-width="3" stroke-dasharray=""/><path fill="none" stroke="green" paint-order="fill stroke markers" d=" M 370 115.5 L 420 115.5" stroke-linecap="round" stroke-miterlimit="10" stroke-width="3" stroke-dasharray=""/><path fill="none" stroke="lightgreen" paint-order="fill stroke markers" d=" M 500 185.5 L 450 185.5" stroke-linecap="round" stroke-miterlimit="10" stroke-width="3" stroke-dasharray=""/><path fill="none" stroke="green" paint-order="fill stroke markers" d=" M 500 205.5 L 220 205.5" stroke-linecap="round" stroke-miterlimit="10" stroke-width="3" stroke-dasharray=""/><path fill="none" stroke="lightgreen" paint-order="fill stroke markers" d=" M 450.5 115 L 450.5 185" stroke-linecap="round" stroke-miterlimit="10" stroke-width="3" stroke-dasharray=""/><path fill="none" stroke="green" paint-order="fill stroke markers" d=" M 180.5 115 L 180.5 105" stroke-linecap="round" stroke-miterlimit="10" stroke-width="3" stroke-dasharray=""/><path fill="none" stroke="green" paint-order="fill stroke markers" d=" M 180.5 135 L 180.5 145" stroke-linecap="round" stroke-miterlimit="10" stroke-width="3" stroke-dasharray=""/><path fill="none" stroke="green" paint-order="fill stroke markers" d=" M 180.5 195 L 180.5 185" stroke-linecap="round" stroke-miterlimit="10" stroke-width="3" stroke-dasharray=""/><path fill="none" stroke="green" paint-order="fill stroke markers" d=" M 180.5 215 L 180.5 225" stroke-linecap="round" stroke-miterlimit="10" stroke-width="3" stroke-dasharray=""/><path fill="none" stroke="green" paint-order="fill stroke markers" d=" M 180 65.5 L 70 65.5" stroke-linecap="round" stroke-miterlimit="10" stroke-width="3" stroke-dasharray=""/><path fill="none" stroke="lightgreen" paint-order="fill stroke markers" d=" M 210.5 65 L 210.5 105" stroke-linecap="round" stroke-miterlimit="10" stroke-width="3" stroke-dasharray=""/><path fill="none" stroke="green" paint-order="fill stroke markers" d=" M 70 105.5 L 180 105.5" stroke-linecap="round" stroke-miterlimit="10" stroke-width="3" stroke-dasharray=""/><path fill="none" stroke="green" paint-order="fill stroke markers" d=" M 70 145.5 L 180 145.5" stroke-linecap="round" stroke-miterlimit="10" stroke-width="3" stroke-dasharray=""/><path fill="none" stroke="green" paint-order="fill stroke markers" d=" M 70 185.5 L 180 185.5" stroke-linecap="round" stroke-miterlimit="10" stroke-width="3" stroke-dasharray=""/><path fill="none" stroke="green" paint-order="fill stroke markers" d=" M 70 225.5 L 180 225.5" stroke-linecap="round" stroke-miterlimit="10" stroke-width="3" stroke-dasharray=""/><path fill="none" stroke="green" paint-order="fill stroke markers" d=" M 70 265.5 L 180 265.5" stroke-linecap="round" stroke-miterlimit="10" stroke-width="3" stroke-dasharray=""/><path fill="none" stroke="green" paint-order="fill stroke markers" d=" M 180.5 265 L 180.5 275" stroke-linecap="round" stroke-miterlimit="10" stroke-width="3" stroke-dasharray=""/><path fill="none" stroke="green" paint-order="fill stroke markers" d=" M 70 305.5 L 180 305.5" stroke-linecap="round" stroke-miterlimit="10" stroke-width="3" stroke-dasharray=""/><path fill="none" stroke="green" paint-order="fill stroke markers" d=" M 180.5 305 L 180.5 295" stroke-linecap="round" stroke-miterlimit="10" stroke-width="3" stroke-dasharray=""/><path fill="none" stroke="green" paint-order="fill stroke markers" d=" M 210 285.5 L 340 285.5" stroke-linecap="round" stroke-miterlimit="10" stroke-width="3" stroke-dasharray=""/><path fill="none" stroke="green" paint-order="fill stroke markers" d=" M 340.5 285 L 340.5 305" stroke-linecap="round" stroke-miterlimit="10" stroke-width="3" stroke-dasharray=""/><path fill="none" stroke="green" paint-order="fill stroke markers" d=" M 70 345.5 L 340 345.5" stroke-linecap="round" stroke-miterlimit="10" stroke-width="3" stroke-dasharray=""/><path fill="none" stroke="green" paint-order="fill stroke markers" d=" M 340.5 345 L 340.5 325" stroke-linecap="round" stroke-miterlimit="10" stroke-width="3" stroke-dasharray=""/><path fill="none" stroke="green" paint-order="fill stroke markers" d=" M 380 315.5 L 430 315.5" stroke-linecap="round" stroke-miterlimit="10" stroke-width="3" stroke-dasharray=""/><path fill="none" stroke="lightgreen" paint-order="fill stroke markers" d=" M 530 195.5 L 640 195.5" stroke-linecap="round" stroke-miterlimit="10" stroke-width="3" stroke-dasharray=""/><path fill="none" stroke="lightgreen" paint-order="fill stroke markers" d=" M 640.5 195 L 640.5 245" stroke-linecap="round" stroke-miterlimit="10" stroke-width="3" stroke-dasharray=""/><path fill="none" stroke="lightgreen" paint-order="fill stroke markers" d=" M 460 315.5 L 640 315.5" stroke-linecap="round" stroke-miterlimit="10" stroke-width="3" stroke-dasharray=""/><path fill="none" stroke="lightgreen" paint-order="fill stroke markers" d=" M 640.5 315 L 640.5 265" stroke-linecap="round" stroke-miterlimit="10" stroke-width="3" stroke-dasharray=""/><path fill="none" stroke="lightgreen" paint-order="fill stroke markers" d=" M 670 255.5 L 720 255.5" stroke-linecap="round" stroke-miterlimit="10" stroke-width="3" stroke-dasharray=""/><path fill="green" stroke="none" paint-order="stroke fill markers" d=" M 343 105 A 3 3 0 1 1 342.9999985000001 104.9970000005 Z"/><path fill="green" stroke="none" paint-order="stroke fill markers" d=" M 343 125 A 3 3 0 1 1 342.9999985000001 124.9970000005 Z"/><path fill="green" stroke="none" paint-order="stroke fill markers" d=" M 373 115 A 3 3 0 1 1 372.9999985000001 114.9970000005 Z"/><path fill="green" stroke="none" paint-order="stroke fill markers" d=" M 503 185 A 3 3 0 1 1 502.9999985000001 184.9970000005 Z"/><path fill="green" stroke="none" paint-order="stroke fill markers" d=" M 503 205 A 3 3 0 1 1 502.9999985000001 204.9970000005 Z"/><path fill="green" stroke="none" paint-order="stroke fill markers" d=" M 533 195 A 3 3 0 1 1 532.9999985000002 194.9970000005 Z"/><path fill="green" stroke="none" paint-order="stroke fill markers" d=" M 423 115 A 3 3 0 1 1 422.9999985000001 114.9970000005 Z"/><path fill="green" stroke="none" paint-order="stroke fill markers" d=" M 453 115 A 3 3 0 1 1 452.9999985000001 114.9970000005 Z"/><path fill="green" stroke="none" paint-order="stroke fill markers" d=" M 183 115 A 3 3 0 1 1 182.99999850000012 114.9970000005 Z"/><path fill="green" stroke="none" paint-order="stroke fill markers" d=" M 183 135 A 3 3 0 1 1 182.99999850000012 134.9970000005 Z"/><path fill="green" stroke="none" paint-order="stroke fill markers" d=" M 223 125 A 3 3 0 1 1 222.99999850000012 124.9970000005 Z"/><path fill="green" stroke="none" paint-order="stroke fill markers" d=" M 183 195 A 3 3 0 1 1 182.99999850000012 194.9970000005 Z"/><path fill="green" stroke="none" paint-order="stroke fill markers" d=" M 183 215 A 3 3 0 1 1 182.99999850000012 214.9970000005 Z"/><path fill="green" stroke="none" paint-order="stroke fill markers" d=" M 223 205 A 3 3 0 1 1 222.99999850000012 204.9970000005 Z"/><path fill="green" stroke="none" paint-order="stroke fill markers" d=" M 183 65 A 3 3 0 1 1 182.99999850000012 64.9970000005 Z"/><path fill="green" stroke="none" paint-order="stroke fill markers" d=" M 213 65 A 3 3 0 1 1 212.99999850000012 64.9970000005 Z"/><path fill="green" stroke="none" paint-order="stroke fill markers" d=" M 73 65 A 3 3 0 1 1 72.99999850000013 64.9970000005 Z"/><path fill="green" stroke="none" paint-order="stroke fill markers" d=" M 73 105 A 3 3 0 1 1 72.99999850000013 104.9970000005 Z"/><path fill="green" stroke="none" paint-order="stroke fill markers" d=" M 73 145 A 3 3 0 1 1 72.99999850000013 144.9970000005 Z"/><path fill="green" stroke="none" paint-order="stroke fill markers" d=" M 73 185 A 3 3 0 1 1 72.99999850000013 184.9970000005 Z"/><path fill="green" stroke="none" paint-order="stroke fill markers" d=" M 73 225 A 3 3 0 1 1 72.99999850000013 224.9970000005 Z"/><path fill="green" stroke="none" paint-order="stroke fill markers" d=" M 73 305 A 3 3 0 1 1 72.99999850000013 304.9970000005 Z"/><path fill="green" stroke="none" paint-order="stroke fill markers" d=" M 73 345 A 3 3 0 1 1 72.99999850000013 344.9970000005 Z"/><path fill="lightgreen" stroke="none" paint-order="stroke fill markers" d=" M 213 105 A 3 3 0 1 1 212.99999850000012 104.9970000005 Z"/><path fill="green" stroke="none" paint-order="stroke fill markers" d=" M 183 105 A 3 3 0 1 1 182.99999850000012 104.9970000005 Z"/><path fill="green" stroke="none" paint-order="stroke fill markers" d=" M 183 145 A 3 3 0 1 1 182.99999850000012 144.9970000005 Z"/><path fill="green" stroke="none" paint-order="stroke fill markers" d=" M 183 185 A 3 3 0 1 1 182.99999850000012 184.9970000005 Z"/><path fill="green" stroke="none" paint-order="stroke fill markers" d=" M 183 225 A 3 3 0 1 1 182.99999850000012 224.9970000005 Z"/><path fill="lightgreen" stroke="none" paint-order="stroke fill markers" d=" M 453 185 A 3 3 0 1 1 452.9999985000001 184.9970000005 Z"/><path fill="green" stroke="none" paint-order="stroke fill markers" d=" M 183 275 A 3 3 0 1 1 182.99999850000012 274.9970000005 Z"/><path fill="green" stroke="none" paint-order="stroke fill markers" d=" M 183 295 A 3 3 0 1 1 182.99999850000012 294.9970000005 Z"/><path fill="green" stroke="none" paint-order="stroke fill markers" d=" M 213 285 A 3 3 0 1 1 212.99999850000012 284.9970000005 Z"/><path fill="green" stroke="none" paint-order="stroke fill markers" d=" M 73 265 A 3 3 0 1 1 72.99999850000013 264.9970000005 Z"/><path fill="green" stroke="none" paint-order="stroke fill markers" d=" M 183 265 A 3 3 0 1 1 182.99999850000012 264.9970000005 Z"/><path fill="green" stroke="none" paint-order="stroke fill markers" d=" M 183 305 A 3 3 0 1 1 182.99999850000012 304.9970000005 Z"/><path fill="green" stroke="none" paint-order="stroke fill markers" d=" M 343 305 A 3 3 0 1 1 342.9999985000001 304.9970000005 Z"/><path fill="green" stroke="none" paint-order="stroke fill markers" d=" M 343 325 A 3 3 0 1 1 342.9999985000001 324.9970000005 Z"/><path fill="green" stroke="none" paint-order="stroke fill markers" d=" M 383 315 A 3 3 0 1 1 382.9999985000001 314.9970000005 Z"/><path fill="green" stroke="none" paint-order="stroke fill markers" d=" M 343 285 A 3 3 0 1 1 342.9999985000001 284.9970000005 Z"/><path fill="green" stroke="none" paint-order="stroke fill markers" d=" M 343 345 A 3 3 0 1 1 342.9999985000001 344.9970000005 Z"/><path fill="green" stroke="none" paint-order="stroke fill markers" d=" M 433 315 A 3 3 0 1 1 432.9999985000001 314.9970000005 Z"/><path fill="green" stroke="none" paint-order="stroke fill markers" d=" M 463 315 A 3 3 0 1 1 462.9999985000001 314.9970000005 Z"/><path fill="green" stroke="none" paint-order="stroke fill markers" d=" M 643 245 A 3 3 0 1 1 642.9999985000002 244.9970000005 Z"/><path fill="green" stroke="none" paint-order="stroke fill markers" d=" M 643 265 A 3 3 0 1 1 642.9999985000002 264.9970000005 Z"/><path fill="green" stroke="none" paint-order="stroke fill markers" d=" M 673 255 A 3 3 0 1 1 672.9999985000002 254.9970000005 Z"/><path fill="lightgreen" stroke="none" paint-order="stroke fill markers" d=" M 643 195 A 3 3 0 1 1 642.9999985000002 194.9970000005 Z"/><path fill="lightgreen" stroke="none" paint-order="stroke fill markers" d=" M 643 315 A 3 3 0 1 1 642.9999985000002 314.9970000005 Z"/><path fill="green" stroke="none" paint-order="stroke fill markers" d=" M 723 255 A 3 3 0 1 1 722.9999985000002 254.9970000005 Z"/></g></svg>